<?xml version="1.0" encoding="UTF-8"?>
<svg xmlns="http://www.w3.org/2000/svg" viewBox="0 0 479.94 469.65">
  <defs>
    <style>
      .cls-1 {
        stroke-linecap: round;
        stroke-linejoin: round;
      }

      .cls-1, .cls-2, .cls-3, .cls-4, .cls-5, .cls-6, .cls-7 {
        stroke: #263238;
      }

      .cls-1, .cls-7 {
        fill: none;
      }

      .cls-8 {
        opacity: .75;
      }

      .cls-8, .cls-4, .cls-9 {
        fill: #fff;
      }

      .cls-8, .cls-10, .cls-11, .cls-9 {
        stroke-width: 0px;
      }

      .cls-2 {
        stroke-width: 4px;
      }

      .cls-2, .cls-3, .cls-4, .cls-5, .cls-6, .cls-7 {
        stroke-miterlimit: 10;
      }

      .cls-2, .cls-6, .cls-10 {
        fill: #263238;
      }

      .cls-3, .cls-11 {
        fill: #92e3a9;
      }

      .cls-5 {
        fill: #a6a6a6;
      }
    </style>
  </defs>
  <g id="Background_Simple" data-name="Background Simple">
    <g>
      <path class="cls-11" d="M405.69,138.29s-93.8-94.63-158.81-95.45C181.88,42.02,14.85,162.98,2.5,200.83c-12.34,37.85,69.12,228.75,126.72,258.37,57.6,29.62,287.17-102.03,313.5-142.35,26.33-40.32-8.23-132.48-37.03-178.56Z"/>
      <path class="cls-8" d="M405.69,138.29s-93.8-94.63-158.81-95.45C181.88,42.02,14.85,162.98,2.5,200.83c-12.34,37.85,69.12,228.75,126.72,258.37,57.6,29.62,287.17-102.03,313.5-142.35,26.33-40.32-8.23-132.48-37.03-178.56Z"/>
    </g>
  </g>
  <g id="Circles">
    <circle class="cls-1" cx="181.27" cy="404.35" r="10.82"/>
    <path class="cls-1" d="M274.14,418.78c0-1.99-1.61-3.61-3.61-3.61s-3.61,1.61-3.61,3.61,1.61,3.61,3.61,3.61,3.61-1.61,3.61-3.61Z"/>
    <path class="cls-1" d="M238.07,368.28c0-3.98-3.23-7.21-7.21-7.21s-7.21,3.23-7.21,7.21,3.23,7.21,7.21,7.21,7.21-3.23,7.21-7.21Z"/>
    <circle class="cls-1" cx="36.09" cy="266.39" r="6.31"/>
    <path class="cls-1" d="M25.27,154.57c0-2.49-2.02-4.51-4.51-4.51s-4.51,2.02-4.51,4.51,2.02,4.51,4.51,4.51,4.51-2.02,4.51-4.51Z"/>
    <circle class="cls-1" cx="318.33" cy="116.7" r="5.41"/>
    <circle class="cls-1" cx="241.68" cy="46.37" r="9.02" transform="translate(106.82 252.21) rotate(-67.63)"/>
  </g>
  <g id="Book">
    <g>
      <path class="cls-1" d="M17.07,343.08l-12.33,29.29s2.83-.58,16.12.4c13.28.98,20.17,7.38,20.17,7.38l17.22-47.73s-9.63-13.82-33.83-6.8l-5.02,11.91"/>
      <path class="cls-1" d="M94.25,348.27l1.64-4.95s-4.33-7.11-14.21-10.2c-9.89-3.09-23.43-.7-23.43-.7"/>
      <path class="cls-1" d="M41.03,380.15c13.42-5.2,39.41,9.83,39.41,9.83l12.2-36.85"/>
      <g>
        <path class="cls-1" d="M25.13,335.91s15.14-4.02,24.1,4.33"/>
        <path class="cls-1" d="M38.04,343.38c2.77.79,5.49,2.12,7.8,4.27"/>
        <path class="cls-1" d="M21.73,343.32s6.39-1.69,13.32-.6"/>
        <path class="cls-1" d="M18.64,351.97s15.14-4.02,24.1,4.33"/>
        <path class="cls-1" d="M31.14,360.66c2.8.79,5.55,2.12,7.89,4.29"/>
        <path class="cls-1" d="M14.93,360.63s6.13-1.63,12.89-.66"/>
      </g>
      <g>
        <path class="cls-1" d="M76.81,343.3c3.13,1.05,6.27,2.74,8.88,5.43"/>
        <path class="cls-1" d="M61.59,342.02s6.07-1.01,12.8.59"/>
        <path class="cls-1" d="M58.19,349.1s15.14-2.52,24.1,6.7"/>
        <path class="cls-1" d="M55.1,357.45s15.14-2.52,24.1,6.7"/>
        <path class="cls-1" d="M71.89,369.5c1.27.81,2.49,1.78,3.61,2.94"/>
        <path class="cls-1" d="M51.39,365.73s8.88-1.48,17.06,1.97"/>
      </g>
      <path class="cls-1" d="M6.81,372.42l-1.68,3.57s23.53-2.31,34.46,5.88"/>
      <path class="cls-1" d="M42.31,382.09s22.48-.84,39.29,11.77l15.34-45.38"/>
      <path class="cls-1" d="M7.23,375.99l-.63,2.94s18.7-3.99,33.2,4.83c0,0,25.42,0,39.92,12.19"/>
    </g>
  </g>
  <g id="Eraser">
    <g>
      <polygon class="cls-1" points="273.76 291.21 261.4 297.42 272.41 308.73 284.75 302.11 273.76 291.21"/>
      <polygon class="cls-1" points="261.4 297.42 261.57 305.18 272.65 317.11 272.41 308.73 261.4 297.42"/>
      <polygon class="cls-1" points="272.65 317.11 285.18 310.65 284.75 302.11 272.41 308.73 272.65 317.11"/>
      <polyline class="cls-1" points="297.41 295.67 306.42 291.08 306.42 299.27 285.18 310.65 284.75 302.11 293.94 297.43"/>
      <polyline class="cls-1" points="293.43 297.69 284.75 302.11 273.76 291.21 294.75 280.16 306.42 291.08 297.8 295.47"/>
    </g>
  </g>
  <g id="Envelope">
    <g>
      <polyline class="cls-1" points="291.67 391.49 254.64 373.85 272.2 336.97 332.18 365.53 314.62 402.41 297 394.02"/>
      <polyline class="cls-1" points="272.2 336.97 293.58 373.51 332.18 365.53"/>
    </g>
  </g>
  <g id="Pencil">
    <g>
      <path class="cls-1" d="M276.96,71.66l-27.31,52.28-.79,12.99,12.35-6.19,26.8-52.86c.58-1.14.17-2.54-.93-3.19l-6.72-3.99c-1.2-.71-2.75-.27-3.4.96Z"/>
      <line class="cls-1" x1="273.41" y1="78.86" x2="284.2" y2="85.4"/>
      <line class="cls-1" x1="249.65" y1="123.94" x2="261.21" y2="130.74"/>
      <line class="cls-1" x1="275.89" y1="80.45" x2="252.93" y2="125.25"/>
      <line class="cls-1" x1="262.76" y1="117.6" x2="257" y2="128.08"/>
      <line class="cls-1" x1="280.84" y1="83.63" x2="264.53" y2="114.36"/>
      <line class="cls-1" x1="249.21" y1="132.33" x2="253.46" y2="134.63"/>
    </g>
  </g>
  <g id="Clock">
    <g>
      <path class="cls-1" d="M55.13,24.19c-14.04,7.75-23.55,22.7-23.55,39.87,0,25.14,20.38,45.51,45.51,45.51s45.51-20.38,45.51-45.51-20.38-45.51-45.51-45.51c-5.67,0-11.1,1.04-16.11,2.93"/>
      <path class="cls-1" d="M103.57,90.99c6.97-6.85,11.29-16.39,11.29-26.93,0-20.86-16.91-37.77-37.77-37.77s-37.77,16.91-37.77,37.77,16.91,37.77,37.77,37.77c7.74,0,14.93-2.33,20.92-6.32"/>
      <g>
        <line class="cls-1" x1="77.09" y1="29.41" x2="77.09" y2="36.34"/>
        <line class="cls-1" x1="77.09" y1="91.78" x2="77.09" y2="98.71"/>
      </g>
      <g>
        <line class="cls-1" x1="111.75" y1="64.06" x2="104.82" y2="64.06"/>
        <line class="cls-1" x1="49.37" y1="64.06" x2="42.44" y2="64.06"/>
      </g>
      <g>
        <line class="cls-1" x1="95.4" y1="34.64" x2="91.74" y2="40.52"/>
        <line class="cls-1" x1="62.45" y1="87.6" x2="58.79" y2="93.48"/>
      </g>
      <g>
        <line class="cls-1" x1="108.1" y1="48.58" x2="101.9" y2="51.68"/>
        <line class="cls-1" x1="52.29" y1="76.44" x2="46.09" y2="79.54"/>
      </g>
      <g>
        <line class="cls-1" x1="58.79" y1="34.64" x2="62.45" y2="40.52"/>
        <line class="cls-1" x1="91.74" y1="87.6" x2="95.4" y2="93.48"/>
      </g>
      <g>
        <line class="cls-1" x1="46.09" y1="48.58" x2="52.29" y2="51.68"/>
        <line class="cls-1" x1="101.9" y1="76.44" x2="108.1" y2="79.54"/>
      </g>
      <polyline class="cls-1" points="73.03 78.43 77.09 64.06 55.84 54.31"/>
    </g>
  </g>
  <g id="Speech_Bubble" data-name="Speech Bubble">
    <path class="cls-4" d="M383.76.5h-76.47c-5.76,0-10.43,4.67-10.43,10.43v46.26c0,5.76,4.67,10.43,10.43,10.43h54.23l17.33,16.81-3.28-16.81h8.19c5.76,0,10.43-4.67,10.43-10.43V10.93c0-5.76-4.67-10.43-10.43-10.43Z"/>
    <g>
      <path class="cls-6" d="M313.61,37.26c-1.2,2.11-2.48,4.04-3.79,5.68-.33-.51-1.09-1.46-1.57-1.97,3.42-4.08,6.7-11,8.77-17.73l3.02.91c-.15.36-.47.44-.87.4-.98,2.91-2.15,5.86-3.46,8.63l1.06.29c-.07.22-.25.4-.73.44v23.16h-2.44v-19.81ZM338.55,38.14c.29-1.35.66-3.39.98-5.35h-7.25v21.26c0,2.62-.95,3.09-6.04,3.09-.15-.73-.51-1.78-.91-2.51.91.04,1.78.04,2.48.04h1.46c.47,0,.62-.15.62-.62v-21.26h-5.86c-1.09,2.66-2.37,5.06-3.75,6.88-.44-.44-1.27-1.17-1.86-1.49,2.62-3.39,4.77-9.1,6.01-14.82l3.02.8c-.07.25-.33.4-.8.36-.47,2-1.06,4.04-1.75,5.97h16.09l1.27.04c0,.62-.87,5.39-1.64,8.01l-2.08-.4ZM326.9,39.34c-.11.26-.36.4-.8.4-1.17,4.48-3.17,9.25-5.46,12.16-.47-.4-1.35-.95-1.93-1.24,2.22-2.77,4.11-7.46,5.24-12.12l2.95.8ZM340.12,51.61c-.69-3.42-2.8-8.67-4.99-12.56l2.15-.76c2.29,3.9,4.44,9.03,5.17,12.45l-2.33.87Z"/>
      <path class="cls-6" d="M357.52,30.85l1.38.36-.22.51c-.51,6.44-1.67,11.61-3.5,15.66,1.78,1.38,3.31,2.73,4.3,3.97l-1.49,2c-.91-1.17-2.29-2.48-3.9-3.79-1.86,3.39-4.3,5.86-7.21,7.61-.33-.62-1.02-1.49-1.53-2,2.73-1.46,5.02-3.82,6.84-7.1-1.35-1.02-2.77-1.97-4.15-2.8l-.44,1.6-2.08-1.09c.91-3.2,2.04-7.83,3.1-12.52h-3.64v-2.29h4.15c.58-2.73,1.09-5.35,1.53-7.68l2.99.36c-.04.26-.26.4-.73.44-.4,2.07-.91,4.44-1.46,6.88h5.61l.44-.11ZM350.97,33.26c-.77,3.39-1.6,6.81-2.37,9.79,1.53.84,3.09,1.86,4.62,2.88,1.46-3.39,2.51-7.61,3.02-12.67h-5.28ZM378.75,39.52v2.37h-8.77v12.05c0,2.8-1.09,3.24-7.54,3.17-.15-.65-.55-1.71-.91-2.44,1.75.04,3.35.07,4.37.07,1.24,0,1.6,0,1.6-.77v-12.09h-8.92v-2.37h8.92v-6.19l1.2.07c1.89-1.6,3.9-3.9,5.39-5.94h-14.02v-2.29h15.87l.47-.15,1.93,1.2c-.11.18-.36.29-.58.36-1.89,2.69-5.02,6.15-7.79,8.41v4.52h8.77Z"/>
    </g>
    <g>
      <path class="cls-10" d="M326.47,17.39V4.66h2.31v5.33h2.59v-5.33h2.33v12.73h-2.33v-5.75h-2.59v5.75h-2.31Z"/>
      <path class="cls-10" d="M335.65,17.39V4.66h5.34v1.64h-3.02v3.66h2.37v1.62h-2.37v4.21h3.05v1.6h-5.38Z"/>
      <path class="cls-10" d="M342.38,17.39V4.66h2.33v11.13h3.08v1.6h-5.41Z"/>
      <path class="cls-10" d="M348.94,17.39V4.66h2.33v11.13h3.08v1.6h-5.41Z"/>
      <path class="cls-10" d="M358.86,17.57c-.9,0-1.62-.17-2.15-.5-.53-.34-.92-.82-1.15-1.45-.23-.63-.35-1.37-.35-2.23v-4.76c0-.86.12-1.6.35-2.21.23-.61.61-1.08,1.15-1.41.53-.32,1.25-.49,2.15-.49s1.65.16,2.18.49c.53.32.91.79,1.15,1.41.24.61.35,1.35.35,2.21v4.78c0,.85-.12,1.59-.35,2.21s-.62,1.11-1.15,1.45c-.53.34-1.26.51-2.18.51ZM358.86,15.85c.39,0,.67-.08.86-.25.18-.17.31-.4.37-.69.06-.29.09-.61.09-.96v-5.86c0-.36-.03-.68-.09-.96-.06-.28-.19-.51-.37-.67-.18-.16-.47-.24-.86-.24-.37,0-.64.08-.83.24-.19.16-.31.39-.38.67-.06.28-.09.6-.09.96v5.86c0,.35.03.67.09.96.06.29.18.52.37.69.19.17.47.25.85.25Z"/>
    </g>
  </g>
  <g id="Text_2" data-name="Text 2">
    <g>
      <path class="cls-2" d="M127.01,275.11h32.31v40.69h-5.96v-5.1h-26.35v28.77h-6.05v-28.77h-26v5.53h-5.79v-41.12h31.79v-15.81l7.78.52c-.09.6-.6,1.04-1.73,1.21v14.08ZM94.96,304.92h26v-24.1h-26v24.1ZM127.01,304.92h26.35v-24.1h-26.35v24.1Z"/>
      <path class="cls-2" d="M250.39,280.12h-15.55c2.25.78,2.85.95,3.45,1.21-.26.61-.95.86-2.16.86-5.01,14.17-11.84,25.4-20.91,34.47,9.76,8.12,21.77,14.08,36.2,17.37-1.38,1.38-3.2,3.97-4.15,5.79-14.77-3.8-26.87-10.11-36.8-18.83-9.76,8.21-21.77,14.25-36.46,18.75-.6-1.47-2.25-3.89-3.37-5.27,14.17-4.06,25.92-9.76,35.42-17.62-9.33-9.59-16.41-21.51-21.51-35.59l3.54-1.12h-16.67v-5.7h36.2v-15.12l7.69.52c-.09.6-.61,1.04-1.73,1.21v13.39h36.8v5.7ZM190.52,280.12c4.49,12.61,11.23,23.59,20.3,32.48,8.55-8.55,15.03-19.18,19.61-32.48h-39.91Z"/>
    </g>
  </g>
  <g id="Text_1" data-name="Text 1">
    <g>
      <g>
        <path class="cls-2" d="M55.95,232.8c-4.83,0-8.62-.95-11.36-2.85-2.74-1.9-4.66-4.49-5.74-7.78-1.09-3.28-1.63-7.07-1.63-11.36v-23.53c0-4.5.54-8.41,1.63-11.73,1.09-3.31,3-5.86,5.74-7.65,2.74-1.79,6.53-2.69,11.36-2.69,4.56,0,8.13.77,10.71,2.32,2.58,1.55,4.41,3.76,5.5,6.64,1.09,2.88,1.63,6.22,1.63,10.02v5.54h-11.56v-5.7c0-1.84-.1-3.53-.29-5.05-.19-1.52-.71-2.73-1.55-3.62-.84-.9-2.29-1.34-4.36-1.34s-3.57.48-4.52,1.42c-.95.95-1.56,2.23-1.83,3.83-.27,1.6-.41,3.41-.41,5.42v28.66c0,2.39.19,4.36.57,5.9.38,1.55,1.07,2.72,2.08,3.5,1,.79,2.37,1.18,4.11,1.18,2.01,0,3.43-.47,4.27-1.42.84-.95,1.37-2.21,1.59-3.79.22-1.57.33-3.34.33-5.29v-5.94h11.56v5.29c0,3.91-.52,7.37-1.55,10.38-1.03,3.01-2.84,5.37-5.41,7.08-2.58,1.71-6.2,2.56-10.87,2.56Z"/>
        <path class="cls-2" d="M82.33,231.9v-65.95h11.97v27.6h13.43v-27.6h12.05v65.95h-12.05v-29.8h-13.43v29.8h-11.97Z"/>
        <path class="cls-2" d="M130.21,231.9v-65.95h11.89v65.95h-11.89Z"/>
        <path class="cls-2" d="M152.27,231.9v-65.95h8.39l16.04,37.62v-37.62h9.93v65.95h-7.98l-16.12-39.41v39.41h-10.26Z"/>
        <path class="cls-2" d="M196.65,231.9v-65.95h27.68v8.47h-15.63v18.97h12.3v8.39h-12.3v21.82h15.8v8.31h-27.85Z"/>
        <path class="cls-2" d="M248.11,232.8c-3.96,0-7.27-.77-9.93-2.32-2.66-1.55-4.67-3.81-6.03-6.8-1.36-2.98-2.12-6.65-2.28-10.99l10.34-2.04c.11,2.55.42,4.8.94,6.76.52,1.95,1.3,3.46,2.36,4.52s2.46,1.59,4.19,1.59c1.95,0,3.34-.58,4.15-1.75.81-1.17,1.22-2.65,1.22-4.44,0-2.88-.65-5.24-1.95-7.08-1.3-1.85-3.04-3.69-5.21-5.54l-8.31-7.33c-2.33-2.01-4.19-4.25-5.58-6.72-1.38-2.47-2.08-5.52-2.08-9.16,0-5.21,1.52-9.23,4.56-12.05,3.04-2.82,7.19-4.23,12.46-4.23,3.09,0,5.67.48,7.74,1.42,2.06.95,3.7,2.27,4.93,3.95,1.22,1.68,2.13,3.6,2.73,5.74.6,2.14.98,4.41,1.14,6.8l-10.26,1.79c-.11-2.06-.34-3.91-.69-5.54-.35-1.63-.98-2.9-1.87-3.83-.9-.92-2.21-1.38-3.95-1.38s-3.16.58-4.11,1.75c-.95,1.17-1.43,2.62-1.43,4.36,0,2.23.46,4.06,1.38,5.5.92,1.44,2.25,2.92,3.99,4.44l8.22,7.25c2.71,2.28,5.03,4.95,6.96,8.02,1.93,3.07,2.89,6.77,2.89,11.11,0,3.15-.69,5.94-2.08,8.39-1.38,2.44-3.31,4.36-5.78,5.74-2.47,1.38-5.36,2.08-8.67,2.08Z"/>
        <path class="cls-2" d="M271.07,231.9v-65.95h27.68v8.47h-15.63v18.97h12.29v8.39h-12.29v21.82h15.8v8.31h-27.85Z"/>
      </g>
      <g>
        <path class="cls-3" d="M58.18,230.01c-4.83,0-8.62-.95-11.36-2.85-2.74-1.9-4.66-4.49-5.74-7.78-1.09-3.28-1.63-7.07-1.63-11.36v-23.53c0-4.5.54-8.41,1.63-11.73,1.09-3.31,3-5.86,5.74-7.65,2.74-1.79,6.53-2.69,11.36-2.69,4.56,0,8.13.77,10.71,2.32,2.58,1.55,4.41,3.76,5.5,6.64,1.09,2.88,1.63,6.22,1.63,10.02v5.54h-11.56v-5.7c0-1.84-.1-3.53-.29-5.05-.19-1.52-.71-2.73-1.55-3.62-.84-.9-2.29-1.34-4.36-1.34s-3.57.48-4.52,1.42c-.95.95-1.56,2.23-1.83,3.83-.27,1.6-.41,3.41-.41,5.42v28.66c0,2.39.19,4.36.57,5.9.38,1.55,1.07,2.72,2.08,3.5,1,.79,2.37,1.18,4.11,1.18,2.01,0,3.43-.47,4.27-1.42.84-.95,1.37-2.21,1.59-3.79.22-1.57.33-3.34.33-5.29v-5.94h11.56v5.29c0,3.91-.52,7.37-1.55,10.38-1.03,3.01-2.84,5.37-5.42,7.08-2.58,1.71-6.2,2.56-10.87,2.56Z"/>
        <path class="cls-3" d="M84.56,229.11v-65.95h11.97v27.6h13.44v-27.6h12.05v65.95h-12.05v-29.8h-13.44v29.8h-11.97Z"/>
        <path class="cls-3" d="M132.44,229.11v-65.95h11.89v65.95h-11.89Z"/>
        <path class="cls-3" d="M154.5,229.11v-65.95h8.39l16.04,37.62v-37.62h9.93v65.95h-7.98l-16.12-39.41v39.41h-10.26Z"/>
        <path class="cls-3" d="M198.88,229.11v-65.95h27.68v8.47h-15.63v18.97h12.3v8.39h-12.3v21.82h15.8v8.31h-27.85Z"/>
        <path class="cls-3" d="M250.34,230.01c-3.96,0-7.27-.77-9.93-2.32-2.66-1.55-4.67-3.81-6.03-6.8-1.36-2.98-2.12-6.65-2.28-10.99l10.34-2.04c.11,2.55.42,4.8.94,6.76.52,1.95,1.3,3.46,2.36,4.52s2.46,1.59,4.19,1.59c1.95,0,3.34-.58,4.15-1.75.81-1.17,1.22-2.65,1.22-4.44,0-2.88-.65-5.24-1.95-7.08-1.3-1.85-3.04-3.69-5.21-5.54l-8.31-7.33c-2.33-2.01-4.19-4.25-5.58-6.72-1.38-2.47-2.08-5.52-2.08-9.16,0-5.21,1.52-9.23,4.56-12.05,3.04-2.82,7.19-4.23,12.46-4.23,3.09,0,5.67.48,7.74,1.42,2.06.95,3.7,2.27,4.93,3.95,1.22,1.68,2.13,3.6,2.73,5.74.6,2.15.98,4.41,1.14,6.8l-10.26,1.79c-.11-2.06-.34-3.91-.69-5.54-.35-1.63-.98-2.9-1.87-3.83-.9-.92-2.21-1.38-3.95-1.38s-3.16.58-4.11,1.75c-.95,1.17-1.43,2.62-1.43,4.36,0,2.23.46,4.06,1.38,5.5.92,1.44,2.25,2.92,3.99,4.44l8.22,7.25c2.71,2.28,5.03,4.95,6.96,8.02,1.93,3.07,2.89,6.77,2.89,11.11,0,3.15-.69,5.94-2.08,8.39-1.38,2.44-3.31,4.36-5.78,5.74-2.47,1.38-5.36,2.08-8.67,2.08Z"/>
        <path class="cls-3" d="M273.3,229.11v-65.95h27.68v8.47h-15.63v18.97h12.29v8.39h-12.29v21.82h15.8v8.31h-27.85Z"/>
      </g>
    </g>
  </g>
  <g id="Flag">
    <g>
      <rect class="cls-3" x="110.44" y="65.15" width="119.72" height="68.17"/>
      <g>
        <polygon class="cls-9" points="128.18 73.97 131.39 83.85 141.78 83.85 133.37 89.96 136.58 99.84 128.18 93.73 119.77 99.84 122.98 89.96 114.57 83.85 124.96 83.85 128.18 73.97"/>
        <polygon class="cls-9" points="146.59 70.96 148.29 73.14 150.87 72.2 149.33 74.48 151.02 76.65 148.38 75.89 146.83 78.17 146.74 75.42 144.1 74.66 146.68 73.72 146.59 70.96"/>
        <polygon class="cls-9" points="149.05 100.53 148.85 103.27 151.41 104.31 148.73 104.97 148.53 107.72 147.08 105.38 144.41 106.04 146.18 103.94 144.73 101.6 147.28 102.63 149.05 100.53"/>
        <polygon class="cls-9" points="153.87 79.33 155.28 81.7 157.96 81.08 156.15 83.16 157.57 85.52 155.03 84.44 153.22 86.52 153.47 83.77 150.94 82.69 153.62 82.08 153.87 79.33"/>
        <polygon class="cls-9" points="153.37 90.8 154.23 93.42 156.98 93.42 154.75 95.04 155.6 97.66 153.37 96.04 151.15 97.66 152 95.04 149.77 93.42 152.52 93.42 153.37 90.8"/>
      </g>
    </g>
  </g>
  <g id="Character">
    <g>
      <path class="cls-6" d="M378.72,89.92s-17.78,7.11-20.06,13.71c-2.29,6.6-1.52,12.44-.25,21.08,1.27,8.63-16.51,45.71-14.98,49.52,1.52,3.81,10.41,16.51,46.73,19.81,36.31,3.3,68.31-13.97,69.83-17.27,1.52-3.3-15.49-48.25-21.33-63.74-5.84-15.49-23.87-26.41-32-28.19-8.13-1.78-27.93,5.08-27.93,5.08Z"/>
      <g>
        <path class="cls-4" d="M352.26,277.98s-17.73-5.99-32.82-20.36c-15.09-14.37-22.76-23.96-26.83-29.23-4.07-5.27-11.74-5.51-15.57-5.51s-6.71-.96-9.58-3.11c-2.87-2.16-3.35,0-2.87,2.64.48,2.64,5.03,4.79,6.23,5.27,1.2.48,4.07,3.11,4.07,3.11l-17.73.69s-10.33-6.89-12.62-7.54c-2.3-.66-1.64,1.8,1.48,5.57,3.11,3.77,8.85,9.02,16.89,13.44,8.03,4.43,17.87,2.46,17.87,2.46l10.33-.66s19.67,35.41,31.48,47.38c11.8,11.97,31.97,21.8,33.77,20.16s-4.08-34.32-4.08-34.32Z"/>
        <path class="cls-4" d="M256.99,234.76s-6.23-11.64-7.87-13.11c-1.64-1.48-1.31,2.3-.66,5.74.66,3.44,4.75,8.85,6.23,10.33,1.48,1.48,3.77,2.3,3.77,2.3l-1.48-5.25Z"/>
        <path class="cls-4" d="M285.68,237.05s-4.92-1.64-8.52-.82c-3.61.82-11.8,3.11-12.79,3.28-.98.16-7.54-9.84-9.84-13.28s-2.46-.49-1.8,2.13c.66,2.62,2.95,6.89,4.59,10,1.64,3.11,4.43,5.9,6.39,6.56,1.97.66,17.21,1.64,24.75-.66"/>
      </g>
      <g>
        <path class="cls-5" d="M454.6,469.15c-4.4-26.21-10.63-76.32-13.81-94.95-3.92-22.96-5.32-22.68-5.32-22.68l-90.73-2.24s-3.92,7.28-5.32,19.04c-1.08,9.06-7.71,72.27-10.71,100.83h125.89Z"/>
        <path class="cls-7" d="M352.02,354.04s-3.08,21-4.48,36.41"/>
        <path class="cls-7" d="M355.69,390.78c-.21,2.65-.41,5.16-.59,7.23"/>
        <path class="cls-7" d="M357.34,368.89s-.5,6.94-1.09,14.62"/>
        <path class="cls-7" d="M431.88,408.26c.18,2.91.26,5.69.23,8.23"/>
        <path class="cls-7" d="M425.39,363s4.36,21.08,6.06,39.61"/>
        <path class="cls-7" d="M432.39,360.76s1.68,9.52,2.52,18.48"/>
        <line class="cls-7" x1="396.26" y1="366.36" x2="396.82" y2="382.05"/>
      </g>
      <path class="cls-3" d="M344.74,349.28s-5.29,7.64-3.15,11.14,30.35,11.09,56.42,10.9c26.07-.19,40.66-7,41.44-9.53.78-2.53.19-10.31.19-10.31,0,0-6.62,7.78-33.66,7.78s-56.42-7.59-58.17-8.56c-1.75-.97-3.07-1.41-3.07-1.41Z"/>
      <path class="cls-3" d="M383.04,198.1s-18.54,24.63-27.93,38.09c-9.4,13.46-10.41,25.14-8.89,37.58,1.52,12.44,6.6,37.08,5.08,42.66-1.52,5.59-11.17,28.44-9.65,33.01,1.52,4.57,19.3,13.71,52.31,14.22,33.01.51,44.69-8.63,46.47-13.71,1.78-5.08-4.82-21.59-4.82-31.23s12.47-69.41,8.92-89.72c-3.56-20.32-32.64-37.75-32.64-37.75,0,0-15.63-2.29-28.84,6.85Z"/>
      <path class="cls-7" d="M369.36,227.67s-.41,4.07,9.35,3.25c9.76-.81,20.74-10.57,20.74-10.57"/>
      <line class="cls-7" x1="424.67" y1="268.75" x2="411.25" y2="253.29"/>
      <path class="cls-4" d="M384.31,178.04s1.78,9.9.25,14.73c-1.52,4.82-3.3,12.44-9.65,23.11-6.35,10.67,2.54,11.94,12.7,8.13,10.16-3.81,25.39-23.62,24.89-27.93-.51-4.32-4.06-12.44-4.32-17.78-.25-5.33,1.27-15.24,1.27-15.24l-25.14,14.98Z"/>
      <polygon class="cls-6" points="400.06 174.74 386.86 189.44 385.87 181.2 400.06 174.74"/>
      <g>
        <path class="cls-4" d="M375.03,101.99s-11.33,8.45-12.57,12.15c-1.24,3.71-1.65,16.27-4.33,23.48-2.68,7.21-1.65,14.63.82,19.57,2.47,4.94,13.6,18.95,14.83,21.63s3.91,3.71,7,4.33c3.09.62,14.52-4.49,19.26-8.41,4.74-3.91,15.96-13.84,15.96-13.84,0,0-7.62-11.95-13.18-23.28-5.56-11.33-11.95-22.25-17.51-27.81-5.56-5.56-10.3-7.83-10.3-7.83Z"/>
        <path class="cls-7" d="M375.42,129.87s-6-6.45-13.37-.27"/>
        <path class="cls-7" d="M384.91,129.38s6.59-4.94,13.18,0"/>
        <path class="cls-7" d="M385.94,138.65s6.18-5.36,13.6-3.3"/>
        <path class="cls-7" d="M362.87,134.53s5.56-1.24,10.3,3.5"/>
        <path class="cls-7" d="M375.44,141.54s0,3.91-1.44,8.45-1.44,4.12,1.24,5.15c2.68,1.03,7.83,1.03,9.27-1.24,1.44-2.27.21-3.3.21-3.3"/>
        <path class="cls-7" d="M374,160.9s5.15,2.06,9.68,1.24,8.03-3.09,8.03-3.09c0,0-5.97,7.21-9.06,8.65-3.09,1.44-8.65-6.8-8.65-6.8Z"/>
        <circle class="cls-10" cx="393.71" cy="137.11" r="1.88"/>
        <path class="cls-10" d="M371.14,136.92c0,1.04-.84,1.88-1.88,1.88s-1.88-.84-1.88-1.88.84-1.88,1.88-1.88,1.88.84,1.88,1.88Z"/>
      </g>
      <g>
        <path class="cls-3" d="M414.28,245.59l18.28,45.46s-4.32,1.78-3.3,3.56,5.08,3.56,5.08,3.56l-.76,2.79s3.05-2.29,15.24-2.03c12.19.25,15.74,2.29,15.74,2.29,0,0,1.02-5.33,1.02-7.87s-3.81-3.56-3.81-4.82,1.52-1.52-.25-5.33c-1.78-3.81-3.05-6.35-3.3-7.62s-2.54-30.22-14.22-52.06c-11.68-21.84-26.41-25.39-32.76-17.52l-6.35,7.87h0"/>
        <path class="cls-7" d="M438.15,296.12s7.41-4.47,13.02-7.41c2.95-1.55,5.41-2.67,6.02-2.49,1.78.51-3.56,3.56-5.08,5.08"/>
        <path class="cls-7" d="M434.34,290.79s10.92-5.59,19.05-6.6"/>
      </g>
      <g>
        <path class="cls-6" d="M334.54,267.43s13.2,51.3,13.2,52.82,1.27,4.82,5.33,6.35c4.06,1.52,26.16,5.08,38.6,4.82,12.44-.25,11.94-3.05,11.17-8.38s-6.86-45.2-9.65-51.3-6.86-6.35-17.52-6.35-22.6.76-29.97.51c-7.36-.25-9.9-.76-9.9-.76l2.03,1.78-3.3.51Z"/>
        <path class="cls-4" d="M365.1,270.88c15.62,1.04,23.47-.52,25.11-1.1.51-.18.97-.49,1.25-.87-2.81-3.34-7.12-3.51-15.79-3.51-10.67,0-22.6.76-29.97.51-7.36-.25-9.9-.76-9.9-.76l2.03,1.78-3.3.51s14.94,2.41,30.56,3.45Z"/>
      </g>
      <path class="cls-4" d="M433.58,300.95s-9.65,6.6-29.97,7.62c-20.32,1.02-33.27-1.78-37.84-4.82-4.57-3.05-9.14-9.4-12.7-10.67s-8.38-1.02-11.17-2.54c-2.79-1.52-4.06-1.02-3.05,1.78,1.02,2.79,2.03,3.3,3.3,4.06,1.27.76,3.05,1.78,3.05,1.78,0,0-8.63,1.27-9.14,2.03,0,0-1.52,5.59.25,6.35,1.78.76,4.06.76,4.06.76,0,0,2.03,7.36,3.3,9.65,1.27,2.29,4.32,5.08,11.43,5.59,7.11.51,14.98,0,14.98,0,0,0,52.57,10.41,74.41,5.33,21.84-5.08,23.36-13.2,22.85-17.27-.51-4.06-2.79-9.4-2.79-9.4,0,0-16.51-6.86-30.98-.25Z"/>
    </g>
  </g>
  <g id="Line">
    <g>
      <line class="cls-6" x1="15.88" y1="469.15" y2="469.15"/>
      <line class="cls-6" x1="479.94" y1="469.15" x2="26.68" y2="469.15"/>
    </g>
  </g>
</svg>