<?xml version="1.0" encoding="UTF-8"?>
<svg xmlns="http://www.w3.org/2000/svg" viewBox="0 0 500 500">
  <defs>
    <style>
      .cls-1 {
        opacity: .75;
      }

      .cls-1, .cls-2, .cls-3, .cls-4, .cls-5 {
        stroke-width: 0px;
      }

      .cls-1, .cls-6, .cls-5 {
        fill: #fff;
      }

      .cls-2 {
        opacity: .15;
      }

      .cls-7, .cls-8, .cls-9, .cls-6, .cls-10, .cls-11, .cls-12, .cls-13 {
        stroke: #263238;
        stroke-miterlimit: 10;
      }

      .cls-7, .cls-4 {
        fill: #92e3a9;
      }

      .cls-8 {
        fill: #8a8a8a;
      }

      .cls-9 {
        fill: #a1a1a1;
      }

      .cls-10 {
        fill: #f0f0f0;
      }

      .cls-11, .cls-3 {
        fill: #263238;
      }

      .cls-12 {
        fill: #bdbdbd;
      }

      .cls-13 {
        fill: none;
      }
    </style>
  </defs>
  <g id="Background_Simple" data-name="Background Simple">
    <g>
      <path class="cls-4" d="M433.42,126.4S335.97,24.64,268.45,23.76C200.92,22.87,27.4,152.94,14.58,193.65s71.8,245.98,131.64,277.84c59.83,31.85,298.32-109.72,325.67-153.08,27.35-43.36-8.55-142.46-38.46-192.01Z"/>
      <path class="cls-1" d="M433.42,126.4S335.97,24.64,268.45,23.76C200.92,22.87,27.4,152.94,14.58,193.65s71.8,245.98,131.64,277.84c59.83,31.85,298.32-109.72,325.67-153.08,27.35-43.36-8.55-142.46-38.46-192.01Z"/>
    </g>
  </g>
  <g id="Clouds">
    <g>
      <path class="cls-2" d="M391.18,135.98s6.46-20.3-17.53-30.45c-23.99-10.15-62.75,4.61-60.9,14.76s20.3,20.3,7.38,21.22c-12.92.92-21.22-18.46-47.99-9.23-26.76,9.23,4.61,21.22-1.85,21.22s-23.99-4.61-39.68,0c-15.69,4.61,0,12.92,59.06,17.53,59.06,4.61,45.22-7.38,67.36-9.23,22.15-1.85,19.38,8.31,66.44,0,47.06-8.31,30.45-36.91-32.3-25.84Z"/>
      <path class="cls-2" d="M146.1,244.26s-2.19-6.89,5.95-10.33c8.14-3.44,21.28,1.57,20.66,5.01-.63,3.44-6.89,6.89-2.5,7.2,4.38.31,7.2-6.26,16.28-3.13,9.08,3.13-1.56,7.2.63,7.2s8.14-1.57,13.46,0,0,4.38-20.03,5.95c-20.03,1.57-15.34-2.5-22.85-3.13-7.51-.63-6.57,2.82-22.54,0-15.96-2.82-10.33-12.52,10.96-8.76Z"/>
      <path class="cls-2" d="M269,57.5s1.97-6.18-5.34-9.27c-7.31-3.09-19.11,1.4-18.54,4.5.56,3.09,6.18,6.18,2.25,6.46-3.93.28-6.46-5.62-14.61-2.81-8.15,2.81,1.4,6.46-.56,6.46s-7.31-1.4-12.08,0c-4.78,1.4,0,3.93,17.98,5.34,17.98,1.4,13.77-2.25,20.51-2.81,6.74-.56,5.9,2.53,20.23,0,14.33-2.53,9.27-11.24-9.83-7.87Z"/>
    </g>
  </g>
  <g id="Monument">
    <g>
      <path class="cls-13" d="M403.17,236.09c-8.53-55.8-11.06-103.3-11.06-103.3l-15.55-.34s-2.44,58.24-7.79,104.55c-3.95,34.17-11.49,75.61-14.32,90.45-5.38,28.22-27.36,82.88-44.68,108.59l34-.05s10.42-44.87,45.5-45.29c35.09-.42,48.91,45.5,48.91,45.5l34.72-.06s-40.89-67.64-57.01-134.11c-4.7-19.38-8.53-39.55-11.63-58.94"/>
      <path class="cls-13" d="M373.82,334.54c3.6-16.79,7.79-36.94,10.06-49.95h9.11s15.31,78.56,16.08,79.69c.76,1.14-41.77.07-41.77.07,0,0,2.39-10.67,5.44-24.8"/>
      <path class="cls-13" d="M380.17,287.56s-10.69,57.32-15.6,71.76"/>
      <path class="cls-13" d="M396.3,287.53s11.69,65.67,14.3,71.71"/>
      <path class="cls-13" d="M408.56,286.87s14.29,58.06,22.71,74.83"/>
      <path class="cls-13" d="M365,287.59s-9.59,55.84-17.62,77.48"/>
      <path class="cls-13" d="M369.37,271.77c-.63,3.85-1.28,7.43-1.96,10.67"/>
      <path class="cls-13" d="M380.7,129.3s-3.18,88.17-10.66,138.11"/>
      <path class="cls-13" d="M388.09,129.29s7.99,120.26,20.36,153.9"/>
      <path class="cls-13" d="M336.05,438.88s6.93-29.98,24.97-42.73c18.04-12.75,38.15-14.43,56.64-.91,18.49,13.52,27.15,38.95,27.99,45.11"/>
      <path class="cls-13" d="M312.24,438.92s20.47-31.23,32.73-65.32"/>
      <path class="cls-13" d="M434.46,373.86s27.18,52.91,37.87,67.67"/>
      <polyline class="cls-13" points="405.98 277.04 371.04 264.04 400.19 249.95 373.9 236.86 396.86 225.74 376.73 213.87 394.78 204.81 377.93 190.88 391.46 180.19 379.12 168.71 389.78 159.25 379.98 152.82 388.93 144.48 381.22 136.35"/>
      <polyline class="cls-13" points="388.56 136.09 380.21 143.7 389.6 152.55 379.73 159.66 390.89 168.26 378.75 178.91 392.7 191.56 377.02 203.24 395.27 213.85 375.28 225.02 398.6 236.38 373.04 250.1 403.21 263.99 369.29 279.49"/>
      <g>
        <polyline class="cls-13" points="364.68 292.43 375.68 305.64 359.88 315.02 371.2 328.24 355.4 336.98 368 346.64"/>
        <polyline class="cls-13" points="378.24 291.76 362.44 303.73 374.08 317.26 357.64 326.32 369.92 339.21 354.12 348.6"/>
      </g>
      <g>
        <polyline class="cls-13" points="409.8 291.84 400.59 305.6 415.26 314.87 405.14 328.18 420.97 336.87 408.34 349.35"/>
        <polyline class="cls-13" points="397.98 291.73 413.82 303.64 402.22 317.21 418.69 326.22 406.45 339.15 426.15 348.74"/>
      </g>
      <polyline class="cls-13" points="337.45 433.68 326.05 415.83 348.78 407.4 340.89 384.67 391.78 374.84"/>
      <line class="cls-13" x1="357.12" y1="373.27" x2="370.95" y2="389.49"/>
      <line class="cls-13" x1="314.44" y1="436.69" x2="340.14" y2="426.09"/>
      <g>
        <polyline class="cls-13" points="443.59 433.51 454.93 415.62 432.17 407.26 439.99 384.51 389.07 374.84"/>
        <line class="cls-13" x1="423.72" y1="373.16" x2="409.94" y2="389.43"/>
        <line class="cls-13" x1="466.6" y1="436.45" x2="440.87" y2="425.93"/>
      </g>
      <g>
        <path class="cls-3" d="M396.62,109.69v-8.15s-7.89,0-7.89,0v-5.74s-3.81,0-3.81,0l-.02-26.23h-1.81s.02,26.23.02,26.23h-3.8s0,5.74,0,5.74h-7.88s0,8.16,0,8.16h.76s0,5.77,0,5.77h-.77s.01,14.77.01,14.77h.55c.06.86.11,1.8.15,2.83l.03.73,23.66-.02.03-.73c.05-1.03.11-1.97.16-2.83h.57s-.01-14.77-.01-14.77h-.77s0-5.77,0-5.77h.77Z"/>
        <rect class="cls-3" x="354.05" y="278.34" width="66.38" height="6.33" transform="translate(-.45 .62) rotate(-.09)"/>
        <polygon class="cls-3" points="388.11 283.1 387.59 283.1 356.21 283.15 360.39 291.06 387.6 291.02 388.12 291.02 414.12 290.97 418.27 283.05 388.11 283.1"/>
        <rect class="cls-3" x="355.1" y="298.24" width="64.2" height="5.92" transform="translate(-.49 .62) rotate(-.09)"/>
        <rect class="cls-3" x="338.06" y="359.94" width="103.77" height="5.61" transform="translate(-.58 .63) rotate(-.09)"/>
        <polygon class="cls-3" points="338.77 376.69 442.35 376.53 436.38 364.23 344.5 364.38 338.77 376.69"/>
        <path class="cls-3" d="M335.18,348.39l.02,14.04,108.7-.18-.02-14.04-108.7.18ZM351.4,351.43h3.51s.01,7.91.01,7.91h-3.51s-.01-7.91-.01-7.91ZM348.35,359.35h-3.51s-.01-7.91-.01-7.91h3.51s.01,7.91.01,7.91ZM357.98,351.42h3.51s.01,7.91.01,7.91h-3.51s-.01-7.91-.01-7.91ZM364.55,351.41h3.51s.01,7.91.01,7.91h-3.51s-.01-7.91-.01-7.91ZM371.13,351.4h3.51s.01,7.91.01,7.91h-3.51s-.01-7.91-.01-7.91ZM377.71,351.39h3.51s.01,7.91.01,7.91h-3.51s-.01-7.91-.01-7.91ZM384.28,351.37h3.51s.01,7.91.01,7.91h-3.51s-.01-7.91-.01-7.91ZM390.86,351.36h3.51s.01,7.91.01,7.91h-3.51s-.01-7.91-.01-7.91ZM397.44,351.35h3.51s.01,7.91.01,7.91h-3.51s-.01-7.91-.01-7.91ZM404.01,351.34h3.51s.01,7.91.01,7.91h-3.51s-.01-7.91-.01-7.91ZM410.59,351.33h3.51s.01,7.91.01,7.91h-3.51s-.01-7.91-.01-7.91ZM417.17,351.32h3.51s.01,7.91.01,7.91h-3.51s-.01-7.91-.01-7.91ZM423.74,351.31h3.51s.01,7.91.01,7.91h-3.51s-.01-7.91-.01-7.91ZM430.32,351.3h3.51s.01,7.91.01,7.91h-3.51s-.01-7.91-.01-7.91ZM338.25,351.45h3.51s.01,7.91.01,7.91h-3.51s-.01-7.91-.01-7.91ZM440.83,359.2h-3.92s-.01-7.91-.01-7.91h3.92s.01,7.91.01,7.91Z"/>
        <rect class="cls-3" x="302.13" y="435.65" width="44.8" height="14.19" transform="translate(-.71 .52) rotate(-.09)"/>
        <rect class="cls-3" x="434.26" y="435.44" width="44.8" height="14.19" transform="translate(-.71 .74) rotate(-.09)"/>
      </g>
    </g>
  </g>
  <g id="Floor">
    <line class="cls-13" x1="5.33" y1="449.89" x2="494.13" y2="449.89"/>
  </g>
  <g id="Book">
    <g>
      <path class="cls-10" d="M232.86,415.5s-6.19-28.51-35.35-42.4c-29.16-13.89-52.3-12.03-77.76-4.17-25.46,7.87-43.51,17.13-56.01,20.83s-18.98,5.09-18.98,5.09l-10.18,1.85,40.73,1.39s29.62-12.03,78.69-13.89c54.61-2.06,77.76,45.82,77.76,45.82l1.1-14.53Z"/>
      <path class="cls-10" d="M232.86,415.5s-15.45-28.51-58.03-35.92c-42.58-7.41-61.56,8.33-86.09,17.59-24.53,9.26-46.29,12.96-52.77,12.03l-6.48-.93,12.96,12.03s1.39,2.78,57.86-4.63c56.47-7.41,125.55-.19,125.55-.19h7Z"/>
      <g>
        <path class="cls-10" d="M229.94,419.09s-11.67-20.06-42.15-29.32c-30.48-9.26-47.21-5.55-73.13,5.09-30.6,12.57-38.88,16.2-70.36,22.22-12.29,2.35-12.5.46-12.5.46l6.02,7.41s24.53,3.24,61.56-11.57c37.03-14.81,68.97-33.33,130.55,5.72Z"/>
        <path class="cls-10" d="M228.15,415.5s6.19-28.51,35.35-42.4,52.3-12.03,77.76-4.17c25.46,7.87,43.51,17.13,56.01,20.83,12.5,3.7,18.98,5.09,18.98,5.09l10.18,1.85-40.73,1.39s-29.62-12.03-78.69-13.89c-54.61-2.06-77.76,45.82-77.76,45.82l-1.1-14.53Z"/>
        <path class="cls-10" d="M228.15,415.5s15.45-28.51,58.03-35.92c42.58-7.41,61.56,8.33,86.09,17.59,24.53,9.26,46.29,12.96,52.77,12.03l6.48-.93-12.96,12.03s-1.39,2.78-57.86-4.63c-56.47-7.41-125.55-.19-125.55-.19h-7Z"/>
        <path class="cls-10" d="M231.08,419.09s11.67-20.06,42.15-29.32c30.48-9.26,47.21-5.55,73.13,5.09,30.6,12.57,38.88,16.2,70.36,22.22,12.29,2.35,12.5.46,12.5.46l-6.02,7.41s-24.53,3.24-61.56-11.57c-37.03-14.81-68.97-33.33-130.55,5.72Z"/>
        <path class="cls-6" d="M225.86,415.5s-29.25-20.39-62.94-22.16c-33.69-1.77-56.74,15.96-85.99,22.16-29.25,6.21-42.55,10.83-42.55,10.83v22.16l194.14-3.74-2.66-29.25Z"/>
        <path class="cls-13" d="M184.02,413.64c-31.05-5.35-45.51-3.21-69.6,4.82"/>
        <path class="cls-13" d="M209.58,418.99c-5.23-1.34-11.83-2.84-20-4.36"/>
        <path class="cls-13" d="M226.32,424.34s-2.56-1.22-8.61-3.07"/>
        <path class="cls-13" d="M50.7,435.58s30.52-6.42,47.12-11.77"/>
        <path class="cls-13" d="M122.98,432.37s25.7-6.42,56.75-2.14c31.05,4.28,43.9,6.96,43.9,6.96"/>
        <path class="cls-13" d="M44.28,443.07s20.35-3.2,39.62-7.49"/>
        <path class="cls-13" d="M149.75,402.39s20.35-3.21,49.79,6.96"/>
      </g>
      <g>
        <path class="cls-6" d="M232.86,415.5s29.25-20.39,62.94-22.16c33.69-1.77,56.74,15.96,85.99,22.16,29.25,6.21,42.55,10.83,42.55,10.83v22.16l-194.14-3.74,2.66-29.25Z"/>
        <path class="cls-13" d="M289.45,411.52c21.59-2.33,34.93.29,54.86,6.93"/>
        <path class="cls-13" d="M249.14,418.99c6.37-1.64,14.77-3.5,25.56-5.36"/>
        <path class="cls-13" d="M232.41,424.34s2.56-1.22,8.61-3.07"/>
        <path class="cls-13" d="M408.02,431.84s-30.52-2.68-47.12-8.03"/>
        <path class="cls-13" d="M286.77,429.36c-2.55.22-5.15.51-7.79.87-31.05,4.28-43.9,6.96-43.9,6.96"/>
        <path class="cls-13" d="M335.74,432.37s-14.01-3.5-33.85-3.61"/>
        <path class="cls-13" d="M414.44,439.33s-20.35.54-39.62-3.75"/>
        <path class="cls-13" d="M308.97,402.39s-20.35-3.21-49.79,6.96"/>
      </g>
      <path class="cls-6" d="M245.26,444.87c.06-1.05.1-2.11.1-3.19,0-16.23-7.11-29.38-15.88-29.38s-15.88,13.15-15.88,29.38c0,1.08.04,2.14.1,3.19h31.57Z"/>
      <path class="cls-10" d="M241.36,444.76c.05-.92.07-1.84.07-2.79,0-14.17-5.36-25.66-11.97-25.66s-11.97,11.49-11.97,25.66c0,.94.03,1.87.07,2.79h23.78Z"/>
      <polygon class="cls-7" points="426.79 447.53 228.52 444.76 30.55 447.53 30.55 452.38 211.94 448.64 211.94 450.92 246.77 450.92 246.77 448.64 426.79 452.38 426.79 447.53"/>
    </g>
  </g>
  <g id="Shadow">
    <ellipse class="cls-11" cx="257.12" cy="463.28" rx="75.12" ry="6.47"/>
  </g>
  <g id="Texts_2" data-name="Texts 2">
    <g>
      <g>
        <path class="cls-3" d="M118.46,298.76v-16.07h4.07c.7,0,1.35.06,1.94.18.6.12,1.12.33,1.58.64.46.3.81.72,1.05,1.26.24.54.37,1.23.37,2.09,0,.65-.09,1.2-.28,1.66-.19.46-.45.82-.79,1.08-.34.27-.77.44-1.27.54.62.09,1.14.3,1.57.63.42.33.74.77.95,1.31.21.54.32,1.2.32,1.97,0,.81-.1,1.51-.31,2.1-.21.6-.51,1.09-.9,1.47-.4.38-.89.67-1.47.86-.58.19-1.26.29-2.02.29h-4.8ZM121.74,289.17h.81c.57,0,1-.08,1.29-.25.29-.17.49-.42.61-.75.11-.34.17-.75.17-1.24s-.08-.88-.25-1.18-.42-.51-.75-.65c-.34-.13-.76-.2-1.28-.2h-.6v4.27ZM121.74,296.45h.91c.82,0,1.39-.2,1.7-.62.31-.41.47-1.02.47-1.84,0-.64-.07-1.14-.22-1.52-.15-.38-.38-.65-.7-.83-.32-.18-.76-.27-1.3-.27h-.85v5.08Z"/>
        <path class="cls-3" d="M133.31,298.96c-.82,0-1.52-.15-2.1-.45-.58-.3-1.02-.73-1.32-1.3-.3-.57-.45-1.28-.45-2.12v-4.13c0-.85.15-1.55.45-2.12.3-.57.74-1,1.32-1.3.58-.3,1.28-.45,2.1-.45s1.52.15,2.1.45c.58.3,1.03.73,1.33,1.3.3.57.46,1.28.46,2.12v4.13c0,.85-.15,1.55-.46,2.12-.3.57-.75,1-1.33,1.3-.58.3-1.28.45-2.1.45ZM133.33,296.93c.25,0,.44-.07.58-.21.13-.14.22-.33.26-.58.04-.24.06-.53.06-.84v-4.54c0-.33-.02-.62-.06-.85-.04-.24-.13-.43-.26-.58-.13-.15-.32-.22-.58-.22s-.44.07-.58.22c-.13.15-.22.34-.27.58-.05.24-.07.52-.07.85v4.54c0,.32.02.6.07.84.05.25.14.44.27.58.13.14.32.21.58.21Z"/>
        <path class="cls-3" d="M139.02,298.76v-11.47h3v1.15c.41-.41.84-.74,1.3-.98.46-.24.94-.37,1.46-.37.48,0,.86.12,1.16.36.3.24.52.55.66.94.15.39.22.83.22,1.32v9.05h-2.98v-8.55c0-.32-.05-.56-.15-.71-.1-.16-.29-.24-.57-.24-.16,0-.33.04-.53.13-.19.09-.39.2-.59.35v9.03h-3Z"/>
        <path class="cls-3" d="M149.14,302.19c-.28,0-.55-.02-.82-.06-.27-.04-.53-.1-.76-.18v-2.14c.08.01.17.03.28.04.11.01.2.02.3.02.21,0,.38-.04.52-.11.13-.07.23-.19.31-.35.07-.16.11-.36.11-.59v-11.53h3v11.89c0,.9-.25,1.63-.74,2.18-.5.56-1.22.83-2.17.83ZM149.06,285.4v-2.24h3v2.24h-3Z"/>
        <path class="cls-3" d="M157.73,298.96c-.82,0-1.52-.15-2.1-.45-.58-.3-1.02-.73-1.32-1.3-.3-.57-.45-1.28-.45-2.12v-4.13c0-.85.15-1.55.45-2.12.3-.57.74-1,1.32-1.3.58-.3,1.28-.45,2.1-.45s1.52.15,2.1.45c.58.3,1.03.73,1.33,1.3.3.57.46,1.28.46,2.12v4.13c0,.85-.15,1.55-.46,2.12-.3.57-.75,1-1.33,1.3-.58.3-1.28.45-2.1.45ZM157.75,296.93c.25,0,.44-.07.58-.21.13-.14.22-.33.26-.58.04-.24.06-.53.06-.84v-4.54c0-.33-.02-.62-.06-.85-.04-.24-.13-.43-.26-.58-.13-.15-.32-.22-.58-.22s-.44.07-.58.22c-.13.15-.22.34-.27.58-.05.24-.07.52-.07.85v4.54c0,.32.02.6.07.84.05.25.14.44.27.58.13.14.32.21.58.21Z"/>
        <path class="cls-3" d="M165.39,298.96c-.46,0-.85-.12-1.16-.36-.31-.24-.54-.56-.68-.95-.15-.4-.22-.83-.22-1.31v-9.05h3v8.61c0,.32.05.56.16.72.11.17.3.25.58.25.16,0,.33-.04.51-.13.18-.09.36-.19.55-.31v-9.15h3v11.47h-3v-1.07c-.4.38-.82.69-1.28.92-.46.23-.94.35-1.44.35Z"/>
        <path class="cls-3" d="M173.21,298.76v-11.47h3v1.85c.38-.67.76-1.17,1.14-1.5.38-.32.82-.49,1.34-.49.09,0,.17,0,.25.01.07,0,.14.02.21.05v3.02c-.15-.07-.31-.12-.5-.17-.19-.05-.38-.07-.58-.07-.37,0-.71.1-1.01.29-.3.19-.59.47-.85.82v7.66h-3Z"/>
      </g>
      <rect class="cls-13" x="106.97" y="273.12" width="82.79" height="35.19" rx="14.65" ry="14.65"/>
    </g>
    <g>
      <rect class="cls-11" x="37.7" y="324.92" width="97.08" height="25.69" rx="11.94" ry="11.94"/>
      <g>
        <path class="cls-5" d="M50.08,342.05c-.79,0-1.41-.15-1.87-.45s-.78-.71-.96-1.24c-.18-.53-.27-1.14-.27-1.84v-3.81c0-.73.09-1.36.27-1.89.18-.53.5-.94.96-1.22.46-.29,1.08-.43,1.87-.43s1.36.13,1.79.38c.43.25.74.61.92,1.07.18.46.27,1,.27,1.61v.89h-2.1v-1c0-.24-.01-.47-.04-.69-.03-.21-.1-.39-.22-.52-.12-.14-.32-.2-.61-.2s-.5.07-.63.21c-.13.14-.21.32-.25.54-.03.22-.05.47-.05.74v4.82c0,.3.02.56.07.78.05.22.14.39.27.51.14.12.33.18.58.18.28,0,.48-.07.6-.2.12-.14.19-.32.22-.54s.05-.47.05-.72v-1.03h2.1v.88c0,.62-.09,1.17-.26,1.64-.17.48-.48.85-.9,1.13-.43.27-1.03.41-1.81.41Z"/>
        <path class="cls-5" d="M56.66,342.04c-.54,0-1-.1-1.39-.29-.38-.2-.67-.48-.87-.86-.2-.38-.29-.84-.29-1.4v-2.72c0-.56.1-1.03.29-1.4.2-.38.49-.66.87-.86.38-.2.85-.29,1.39-.29s1,.1,1.39.29c.38.2.68.48.88.86.2.38.3.84.3,1.4v2.72c0,.56-.1,1.03-.3,1.4-.2.38-.49.66-.88.86-.38.2-.85.29-1.39.29ZM56.67,340.71c.17,0,.29-.05.38-.14.09-.09.14-.22.17-.38s.04-.35.04-.56v-3c0-.22-.01-.41-.04-.56s-.08-.28-.17-.38c-.09-.1-.21-.14-.38-.14s-.29.05-.38.14c-.09.1-.15.22-.18.38-.03.16-.05.34-.05.56v3c0,.21.02.39.05.56.03.16.09.29.18.38.09.09.21.14.38.14Z"/>
        <path class="cls-5" d="M60.43,341.91v-7.57h1.93v.63c.27-.28.56-.48.86-.6.3-.12.61-.18.92-.18s.57.08.79.23c.22.15.39.38.49.69.3-.33.61-.57.93-.71.32-.14.65-.21.99-.21.28,0,.53.07.75.21.22.14.39.34.51.62.12.27.18.6.18,1v5.89h-1.93v-5.7c0-.24-.04-.42-.12-.52-.08-.1-.21-.15-.37-.15-.1,0-.23.03-.38.09-.15.06-.29.15-.42.26v6.01h-1.9v-5.7c0-.24-.04-.42-.13-.52-.09-.1-.21-.15-.38-.15-.11,0-.24.03-.39.09-.14.06-.28.15-.41.26v6.01h-1.93Z"/>
        <path class="cls-5" d="M70.08,341.91v-7.57h1.93v.63c.27-.28.56-.48.86-.6.3-.12.61-.18.92-.18s.57.08.79.23c.22.15.39.38.49.69.3-.33.61-.57.93-.71.32-.14.65-.21.99-.21.28,0,.53.07.75.21.22.14.39.34.51.62.12.27.18.6.18,1v5.89h-1.93v-5.7c0-.24-.04-.42-.12-.52-.08-.1-.21-.15-.37-.15-.1,0-.23.03-.38.09-.15.06-.29.15-.42.26v6.01h-1.9v-5.7c0-.24-.04-.42-.13-.52-.09-.1-.21-.15-.38-.15-.11,0-.24.03-.39.09-.14.06-.28.15-.41.26v6.01h-1.93Z"/>
        <path class="cls-5" d="M82.11,342.04c-.56,0-1.03-.1-1.4-.31-.38-.2-.66-.51-.85-.9-.19-.4-.29-.88-.29-1.43v-2.54c0-.58.1-1.06.29-1.45s.48-.69.86-.89c.38-.2.85-.31,1.39-.31.58,0,1.04.1,1.4.31.36.21.62.52.79.92.17.4.26.89.26,1.47v1.32h-3.04v1.47c0,.22.02.4.07.54.05.14.12.24.2.29.09.06.2.09.33.09.12,0,.23-.03.32-.09.09-.06.16-.15.2-.27.04-.12.07-.28.07-.48v-.72h1.83v.63c0,.77-.21,1.35-.63,1.75-.42.4-1.02.6-1.81.6ZM81.52,337.29h1.19v-.75c0-.22-.02-.39-.07-.53-.04-.14-.11-.23-.2-.29-.09-.06-.21-.09-.35-.09-.13,0-.24.03-.32.09-.08.06-.15.17-.19.32-.04.15-.07.37-.07.65v.59Z"/>
        <path class="cls-5" d="M85.75,341.91v-7.57h1.98v.76c.27-.27.56-.49.86-.65s.62-.24.96-.24c.31,0,.57.08.77.24.2.16.34.36.44.62.1.26.14.55.14.87v5.97h-1.96v-5.64c0-.21-.03-.37-.1-.47-.07-.1-.19-.16-.37-.16-.1,0-.22.03-.35.09s-.26.13-.39.23v5.96h-1.98Z"/>
        <path class="cls-5" d="M94.47,341.99c-.52,0-.93-.08-1.23-.24-.3-.16-.5-.39-.62-.7-.11-.31-.17-.68-.17-1.11v-4.3h-.75v-1.3h.75v-2.29h2v2.29h1.1v1.3h-1.1v4.11c0,.24.06.4.18.5s.28.15.49.15c.11,0,.21,0,.3-.02.1-.01.18-.02.26-.03v1.55c-.12.02-.3.04-.52.06-.23.02-.46.03-.69.03Z"/>
        <path class="cls-5" d="M102.36,342.04c-.56,0-1.03-.11-1.4-.32-.38-.21-.66-.52-.84-.91s-.28-.86-.28-1.4v-2.55c0-.57.09-1.05.28-1.43s.47-.69.84-.9c.38-.21.84-.31,1.4-.31s.99.08,1.36.26c.37.17.64.43.82.77.18.34.27.77.27,1.28v.72h-1.89v-.77c0-.23-.02-.4-.06-.53-.04-.13-.1-.22-.18-.27-.08-.05-.19-.08-.32-.08s-.24.03-.31.1-.14.17-.17.33c-.03.15-.05.36-.05.63v2.97c0,.41.05.69.14.83.09.14.23.22.41.22.14,0,.25-.03.33-.09.08-.06.14-.16.17-.29.03-.13.05-.3.05-.5v-.92h1.89v.82c0,.51-.09.94-.27,1.29s-.46.62-.82.79c-.37.17-.82.26-1.35.26ZM102.55,345.42c-.17,0-.33-.01-.5-.04-.17-.03-.33-.07-.48-.12v-.86c.1.03.22.05.35.07.13.02.26.03.39.03.23,0,.42-.04.58-.11.16-.07.24-.19.24-.36s-.06-.3-.18-.39c-.12-.1-.27-.17-.45-.21-.18-.04-.37-.07-.57-.09v-1.43h.76v.84c.52,0,.94.11,1.26.33.31.22.47.55.47.98,0,.32-.08.58-.26.79-.17.2-.4.35-.68.44-.28.09-.59.14-.92.14Z"/>
        <path class="cls-5" d="M107.46,342.04c-.36,0-.67-.09-.92-.28-.26-.18-.45-.41-.58-.69-.13-.28-.2-.57-.2-.86,0-.47.09-.87.27-1.19.18-.32.42-.59.72-.81.3-.22.63-.41,1-.56.37-.16.73-.3,1.1-.43v-.71c0-.17-.01-.31-.04-.43-.03-.12-.08-.22-.15-.28-.07-.07-.18-.1-.32-.1s-.25.03-.32.09c-.07.06-.13.14-.16.25-.03.11-.05.23-.06.36l-.04.52-1.87-.08c.04-.89.28-1.55.7-1.98.42-.43,1.06-.64,1.92-.64.77,0,1.34.21,1.7.63.37.42.55.98.55,1.67v3.52c0,.3,0,.56.02.79.01.23.03.44.05.62.02.18.04.33.06.46h-1.78c-.03-.19-.06-.4-.09-.63-.03-.23-.06-.38-.08-.46-.09.32-.25.6-.5.84-.24.25-.57.37-.98.37ZM108.18,340.64c.1,0,.19-.02.28-.07.09-.04.16-.1.23-.17.07-.07.12-.14.16-.2v-2.08c-.18.11-.35.22-.51.33-.16.11-.29.23-.41.36-.11.13-.2.28-.26.43s-.09.34-.09.54c0,.26.05.47.16.62.1.15.25.23.45.23Z"/>
        <path class="cls-5" d="M116.3,341.91l-1.52-7.57h1.91l.69,5.09.65-5.09h1.9l-1.53,7.57h-2.11Z"/>
        <path class="cls-5" d="M122.23,342.04c-.36,0-.67-.09-.92-.28-.26-.18-.45-.41-.58-.69-.13-.28-.2-.57-.2-.86,0-.47.09-.87.27-1.19.18-.32.42-.59.72-.81.3-.22.63-.41,1-.56.37-.16.73-.3,1.1-.43v-.71c0-.17-.01-.31-.04-.43-.03-.12-.08-.22-.15-.28-.07-.07-.18-.1-.32-.1s-.25.03-.32.09c-.07.06-.13.14-.16.25-.03.11-.05.23-.06.36l-.04.52-1.87-.08c.04-.89.28-1.55.7-1.98.42-.43,1.06-.64,1.92-.64.77,0,1.34.21,1.7.63.37.42.55.98.55,1.67v3.52c0,.3,0,.56.02.79.01.23.03.44.05.62.02.18.04.33.06.46h-1.78c-.03-.19-.06-.4-.09-.63-.03-.23-.06-.38-.08-.46-.09.32-.25.6-.5.84-.24.25-.57.37-.98.37ZM122.95,340.64c.1,0,.19-.02.28-.07.09-.04.16-.1.23-.17.07-.07.12-.14.16-.2v-2.08c-.18.11-.35.22-.51.33-.16.11-.29.23-.41.36-.11.13-.2.28-.26.43-.06.16-.09.34-.09.54,0,.26.05.47.16.62.1.15.25.23.45.23Z"/>
      </g>
    </g>
    <g>
      <rect class="cls-7" x="39.89" y="207.4" width="79.09" height="48.13" rx="13.37" ry="13.37"/>
      <g>
        <path class="cls-3" d="M46.75,243.44l.43-24.95h5.39l3.08,15.74,3.3-15.74h5.21l.43,24.95h-3.7l-.4-16.91-3.17,16.91h-3.17l-3.33-17.03-.34,17.03h-3.73Z"/>
        <path class="cls-3" d="M73.58,243.75c-1.31,0-2.41-.24-3.3-.72-.88-.48-1.55-1.19-2-2.12-.45-.93-.68-2.06-.68-3.37v-5.97c0-1.36.23-2.49.68-3.4.45-.91,1.13-1.61,2.03-2.09.9-.48,1.99-.72,3.26-.72,1.36,0,2.45.25,3.3.74.84.49,1.46,1.21,1.86,2.16.4.94.6,2.09.6,3.45v3.11h-7.15v3.45c0,.51.06.93.17,1.26.11.33.27.56.48.69.2.13.46.2.77.2.29,0,.54-.07.75-.2.22-.13.37-.34.48-.63.1-.29.15-.67.15-1.14v-1.69h4.31v1.48c0,1.81-.49,3.18-1.48,4.13-.99.94-2.4,1.42-4.25,1.42ZM72.2,232.57h2.8v-1.76c0-.51-.05-.93-.15-1.25-.1-.32-.26-.54-.48-.68-.22-.13-.49-.2-.82-.2-.31,0-.56.07-.75.22-.2.14-.34.4-.45.75-.1.36-.15.87-.15,1.52v1.39Z"/>
        <path class="cls-3" d="M82.21,243.44v-17.8h4.65v2.86c.6-1.05,1.19-1.82,1.77-2.33.59-.5,1.28-.75,2.08-.75.14,0,.27,0,.38.02s.22.04.32.08v4.68c-.23-.1-.48-.19-.77-.26-.29-.07-.59-.11-.89-.11-.58,0-1.1.15-1.57.45-.47.3-.91.72-1.32,1.28v11.89h-4.65Z"/>
        <path class="cls-3" d="M99.12,243.75c-1.31,0-2.41-.25-3.3-.75-.88-.5-1.55-1.22-1.99-2.14-.44-.92-.66-2.02-.66-3.3v-6.01c0-1.34.22-2.46.66-3.37.44-.91,1.1-1.62,1.99-2.11.88-.49,1.98-.74,3.3-.74s2.34.2,3.2.6c.86.4,1.5,1,1.93,1.8.42.8.63,1.81.63,3.02v1.69h-4.44v-1.82c0-.53-.05-.95-.14-1.25-.09-.3-.24-.51-.43-.63-.2-.12-.45-.18-.75-.18s-.55.08-.74.23c-.19.15-.32.41-.4.77-.08.36-.12.86-.12,1.49v6.99c0,.97.11,1.62.32,1.96.22.34.54.51.97.51.33,0,.59-.07.77-.22.19-.14.32-.37.4-.68.08-.31.12-.7.12-1.17v-2.16h4.44v1.94c0,1.19-.22,2.2-.65,3.03-.43.83-1.08,1.45-1.94,1.86-.86.41-1.92.62-3.17.62Z"/>
        <path class="cls-3" d="M107.62,222.71v-3.48h4.68v3.48h-4.68ZM107.65,243.44v-17.8h4.65v17.8h-4.65Z"/>
      </g>
    </g>
    <g>
      <rect class="cls-7" x="290.26" y="243.62" width="61.47" height="33.26" rx="12.28" ry="12.28"/>
      <g>
        <path class="cls-3" d="M301.4,268.95c-1.06,0-1.95-.2-2.66-.58-.71-.39-1.24-.98-1.61-1.77-.36-.79-.57-1.79-.63-3.01l3.02-.51c.03.71.1,1.3.22,1.78.12.48.3.83.55,1.06.25.23.56.35.93.35.45,0,.76-.14.93-.43.16-.28.24-.61.24-.98,0-.72-.17-1.33-.52-1.82-.35-.49-.81-.98-1.37-1.48l-1.79-1.55c-.64-.54-1.16-1.15-1.56-1.83-.4-.68-.61-1.52-.61-2.51,0-1.42.42-2.51,1.24-3.27.83-.76,1.97-1.14,3.41-1.14.86,0,1.57.14,2.13.43.55.28.98.66,1.29,1.14.3.48.52.99.64,1.55.12.56.19,1.12.22,1.67l-3,.45c-.03-.53-.07-.99-.14-1.38-.06-.4-.19-.71-.38-.94-.19-.23-.48-.34-.86-.34-.41,0-.72.15-.91.46-.2.3-.3.64-.3,1.01,0,.61.14,1.11.41,1.5.28.39.66.8,1.14,1.22l1.74,1.53c.72.62,1.34,1.34,1.86,2.14.52.8.78,1.79.78,2.97,0,.81-.18,1.54-.55,2.19-.37.65-.88,1.16-1.54,1.53-.66.37-1.44.55-2.33.55Z"/>
        <path class="cls-3" d="M309.93,268.93c-.58,0-1.08-.15-1.5-.45-.42-.3-.73-.67-.95-1.13-.21-.45-.32-.92-.32-1.4,0-.77.15-1.41.45-1.94.3-.52.69-.96,1.17-1.32.48-.35,1.02-.66,1.62-.91.6-.26,1.19-.49,1.79-.7v-1.15c0-.27-.02-.5-.06-.7-.04-.2-.12-.35-.24-.46-.12-.11-.29-.16-.52-.16s-.4.05-.52.14c-.12.09-.21.23-.26.4-.05.18-.08.37-.1.58l-.06.85-3.04-.13c.07-1.45.45-2.52,1.14-3.21.69-.69,1.73-1.04,3.12-1.04,1.25,0,2.17.34,2.77,1.03.6.69.89,1.59.89,2.71v5.72c0,.48.01.91.03,1.29.02.38.05.71.09,1,.03.29.07.54.1.75h-2.89c-.04-.31-.09-.65-.15-1.02-.06-.37-.1-.62-.13-.74-.14.51-.41.97-.81,1.37-.4.4-.93.61-1.59.61ZM311.1,266.65c.16,0,.3-.04.45-.11.14-.07.27-.16.37-.28.11-.11.19-.22.27-.32v-3.38c-.3.18-.57.37-.83.54-.26.18-.48.37-.66.58-.18.21-.33.45-.43.7-.1.26-.15.55-.15.87,0,.43.09.76.26,1.01.17.25.41.37.72.37Z"/>
        <path class="cls-3" d="M317.52,268.72v-17.23h3.21v17.23h-3.21Z"/>
        <path class="cls-3" d="M325.07,268.93c-.5,0-.91-.13-1.24-.38-.33-.26-.58-.6-.73-1.02-.16-.43-.23-.89-.23-1.4v-9.7h3.21v9.23c0,.34.06.6.17.78.11.18.32.27.62.27.17,0,.35-.05.54-.14.19-.09.39-.2.58-.33v-9.81h3.21v12.3h-3.21v-1.15c-.43.41-.88.74-1.37.99s-1,.37-1.54.37Z"/>
        <path class="cls-3" d="M337.09,268.85c-.85,0-1.52-.13-2-.39-.48-.26-.82-.64-1-1.14-.18-.5-.28-1.1-.28-1.81v-6.98h-1.21v-2.11h1.21v-3.72h3.26v3.72h1.79v2.11h-1.79v6.68c0,.38.1.66.29.82.19.16.46.25.8.25.17,0,.33-.01.49-.03.16-.02.3-.04.43-.05v2.51c-.2.03-.48.06-.85.1-.37.03-.74.05-1.13.05Z"/>
        <path class="cls-3" d="M340.62,268.72v-3.04h3.06v3.04h-3.06ZM341.6,264.48l-.94-12.96h3.21l-1.15,12.96h-1.13Z"/>
      </g>
    </g>
    <g>
      <g>
        <path class="cls-3" d="M288.13,215.29c-.69,0-1.27-.13-1.73-.38-.46-.25-.81-.64-1.04-1.15-.24-.51-.37-1.16-.41-1.96l1.96-.33c.02.46.07.85.15,1.15.08.31.2.54.36.69.16.15.36.23.6.23.29,0,.49-.09.6-.28.11-.18.16-.4.16-.64,0-.47-.11-.86-.34-1.18-.23-.32-.52-.64-.89-.96l-1.16-1.01c-.41-.35-.75-.75-1.02-1.19-.26-.44-.39-.99-.39-1.63,0-.92.27-1.63.81-2.12.54-.49,1.28-.74,2.22-.74.56,0,1.02.09,1.38.28.36.18.64.43.84.74.2.31.34.65.41,1.01.08.36.13.73.15,1.08l-1.95.29c-.02-.34-.05-.64-.09-.9-.04-.26-.12-.46-.25-.61-.12-.15-.31-.22-.56-.22-.27,0-.47.1-.59.3-.13.2-.19.42-.19.66,0,.4.09.72.27.97.18.25.43.52.74.79l1.13,1c.47.41.87.87,1.21,1.39.34.52.5,1.16.5,1.93,0,.53-.12,1-.36,1.42-.24.42-.57.76-1,1-.43.24-.93.36-1.51.36Z"/>
        <path class="cls-3" d="M292.31,207.81l-.18-.68c.34,0,.56-.13.66-.37.1-.23.15-.55.15-.93h-.9v-1.89h1.89c0,.27,0,.53,0,.77,0,.25-.01.49-.02.72-.02.77-.14,1.36-.36,1.76-.22.4-.64.61-1.24.62Z"/>
        <path class="cls-3" d="M295.02,205.84v-1.56h2.1v1.56h-2.1ZM295.03,215.14v-7.99h2.09v7.99h-2.09Z"/>
        <path class="cls-3" d="M298.65,215.14v-11.19h2.09v11.19h-2.09Z"/>
        <path class="cls-3" d="M306.69,215.14l-1.6-7.99h2.02l.73,5.38.69-5.38h2l-1.62,7.99h-2.22Z"/>
        <path class="cls-3" d="M313.89,215.27c-.57,0-1.06-.1-1.47-.31-.4-.21-.71-.51-.92-.91-.21-.4-.31-.89-.31-1.48v-2.87c0-.59.1-1.08.31-1.48.21-.4.51-.7.92-.91.41-.21.89-.31,1.47-.31s1.06.1,1.46.31c.4.21.71.51.93.91.21.4.32.89.32,1.48v2.87c0,.59-.11,1.08-.32,1.48-.21.4-.52.7-.93.91-.41.21-.89.31-1.46.31ZM313.91,213.87c.17,0,.31-.05.4-.15.09-.1.15-.23.18-.4.03-.17.04-.37.04-.59v-3.16c0-.23-.01-.43-.04-.59-.03-.17-.09-.3-.18-.4-.09-.1-.23-.15-.4-.15s-.31.05-.4.15c-.09.1-.15.24-.19.4-.03.17-.05.36-.05.59v3.16c0,.22.02.42.05.59.03.17.09.3.19.4.09.1.23.15.4.15Z"/>
        <path class="cls-3" d="M319.23,215.27c-.32,0-.59-.08-.81-.25s-.38-.39-.48-.66c-.1-.28-.15-.58-.15-.91v-6.3h2.09v6c0,.22.04.39.11.5.07.12.21.17.4.17.11,0,.23-.03.35-.09.12-.06.25-.13.38-.21v-6.37h2.09v7.99h-2.09v-.75c-.28.27-.57.48-.89.64-.32.16-.65.24-1,.24Z"/>
        <path class="cls-3" d="M326.96,215.27c-.69,0-1.26-.17-1.71-.5-.45-.34-.79-.85-1.04-1.55l1.46-.61c.14.39.3.69.5.9.19.22.42.32.68.32.19,0,.34-.04.44-.13.1-.09.14-.21.14-.37,0-.22-.07-.42-.22-.59-.15-.17-.41-.42-.79-.73l-.75-.64c-.39-.33-.7-.66-.93-.99-.23-.33-.35-.73-.35-1.22,0-.43.11-.81.32-1.13.22-.32.51-.57.87-.75.36-.18.76-.27,1.18-.27.65,0,1.19.19,1.61.56.42.37.7.88.85,1.51l-1.35.61c-.06-.2-.13-.39-.22-.57s-.21-.33-.35-.45c-.14-.12-.3-.18-.48-.18-.17,0-.3.05-.4.15-.1.1-.15.23-.15.39,0,.17.09.34.26.53.17.18.41.41.71.66l.75.66c.22.19.44.4.65.61.21.22.39.46.53.72.14.26.21.56.21.91,0,.46-.11.85-.33,1.17-.22.32-.51.57-.88.73-.36.17-.76.25-1.2.25Z"/>
        <path class="cls-3" d="M333.8,217.76v-10.61h2.09v.59c.25-.23.52-.41.81-.54.29-.13.58-.19.88-.19.32,0,.59.07.82.21s.4.33.54.57c.14.24.24.51.29.8.06.3.08.59.08.9v3.12c0,.52-.06.97-.19,1.37-.13.4-.33.71-.59.94-.26.23-.6.35-1.02.35-.29,0-.56-.07-.84-.21-.27-.14-.53-.32-.78-.54v3.23h-2.09ZM336.58,213.88c.18,0,.31-.05.39-.16.09-.11.15-.25.19-.42.04-.17.06-.37.06-.58v-3.34c0-.19-.02-.37-.06-.53-.04-.16-.1-.28-.19-.38-.09-.1-.22-.15-.37-.15-.13,0-.25.03-.37.09-.12.06-.23.14-.33.23v5c.11.07.22.13.33.17.11.04.23.06.36.06Z"/>
        <path class="cls-3" d="M340.7,215.14v-11.19h2.09v11.19h-2.09Z"/>
        <path class="cls-3" d="M345.84,215.27c-.38,0-.7-.1-.97-.29s-.48-.44-.61-.73c-.14-.29-.21-.6-.21-.91,0-.5.1-.92.29-1.26.19-.34.45-.63.76-.86.31-.23.66-.43,1.05-.59.39-.17.77-.32,1.16-.46v-.75c0-.17-.01-.33-.04-.46-.03-.13-.08-.23-.16-.3-.08-.07-.19-.1-.34-.1s-.26.03-.34.09c-.08.06-.13.15-.17.26-.03.12-.05.24-.06.38l-.04.55-1.98-.08c.05-.94.29-1.64.74-2.09.45-.45,1.12-.68,2.02-.68.81,0,1.41.22,1.8.67.39.45.58,1.03.58,1.76v3.72c0,.31,0,.59.02.84.01.24.03.46.06.65.02.19.04.35.06.49h-1.88c-.03-.2-.06-.42-.1-.66-.04-.24-.06-.4-.08-.48-.09.33-.27.63-.53.89s-.6.39-1.04.39ZM346.6,213.8c.1,0,.2-.02.29-.07.09-.05.17-.11.24-.18.07-.07.13-.14.17-.21v-2.2c-.19.12-.37.24-.54.35-.17.12-.31.24-.43.38-.12.14-.21.29-.28.46-.06.17-.1.35-.1.57,0,.28.06.5.17.66.11.16.27.24.47.24Z"/>
        <path class="cls-3" d="M350.69,205.84v-1.56h2.1v1.56h-2.1ZM350.7,215.14v-7.99h2.09v7.99h-2.09Z"/>
        <path class="cls-3" d="M356.62,215.22c-.55,0-.99-.09-1.3-.26s-.53-.42-.65-.74c-.12-.32-.18-.71-.18-1.17v-4.53h-.79v-1.37h.79v-2.42h2.11v2.42h1.16v1.37h-1.16v4.34c0,.25.06.43.19.53.12.11.3.16.52.16.11,0,.22,0,.32-.02.1-.01.19-.03.28-.03v1.63c-.13.02-.31.04-.55.06-.24.02-.48.03-.73.03Z"/>
      </g>
      <rect class="cls-13" x="277.19" y="196.92" width="87.06" height="25.32" rx="10.9" ry="10.9"/>
    </g>
  </g>
  <g id="Texts_1" data-name="Texts 1">
    <g>
      <path class="cls-3" d="M105.44,111.38v-39.12h3.67v36.37h11.11v2.75h-14.78Z"/>
      <path class="cls-3" d="M123.84,111.38v-39.12h14.15v2.85h-10.43v14.68h8.5v2.7h-8.5v16.13h10.53v2.75h-14.25Z"/>
      <path class="cls-3" d="M140.98,111.38l8.26-39.12h3.86l8.31,39.12h-3.62l-1.93-10.48h-9.32l-1.98,10.48h-3.57ZM147.07,98.24h8.31l-4.2-21.1-4.11,21.1Z"/>
      <path class="cls-3" d="M166.14,111.38v-39.12h8.84c2.45,0,4.37.39,5.77,1.18,1.4.79,2.41,1.93,3.02,3.43.61,1.5.92,3.28.92,5.34,0,1.45-.16,2.82-.48,4.11-.32,1.29-.87,2.38-1.64,3.28-.77.9-1.87,1.5-3.28,1.79l5.99,19.99h-3.57l-5.75-19.22h-6.13v19.22h-3.67ZM169.81,89.45h4.97c1.64,0,2.91-.27,3.82-.82.9-.55,1.55-1.35,1.93-2.41.39-1.06.58-2.4.58-4.01,0-2.41-.42-4.22-1.26-5.41-.84-1.19-2.5-1.79-4.97-1.79h-5.07v14.44Z"/>
      <path class="cls-3" d="M190.87,111.38v-39.12h2.66l12.46,30.38v-30.38h3.19v39.12h-2.61l-12.56-30.72v30.72h-3.14Z"/>
    </g>
    <g>
      <path class="cls-7" d="M50.83,174.63v-58.53h24.06v7.37h-13.37v17.05h10.91v7.44h-10.91v26.67h-10.7Z"/>
      <path class="cls-7" d="M80.46,174.63v-58.53h14.02c3.95,0,7.29.47,10.01,1.41,2.72.94,4.79,2.54,6.22,4.81,1.42,2.26,2.13,5.35,2.13,9.25,0,2.36-.22,4.48-.65,6.36-.43,1.88-1.17,3.48-2.2,4.81-1.04,1.33-2.47,2.35-4.3,3.07l8.17,28.83h-10.7l-7.08-26.81h-4.91v26.81h-10.7ZM91.16,141.1h3.32c2.07,0,3.72-.3,4.95-.9,1.23-.6,2.11-1.56,2.64-2.89.53-1.32.8-3.02.8-5.09,0-2.94-.54-5.14-1.63-6.61-1.08-1.47-3.14-2.2-6.18-2.2h-3.9v17.7Z"/>
      <path class="cls-7" d="M120.86,174.63v-58.53h24.57v7.52h-13.87v16.84h10.91v7.44h-10.91v19.37h14.02v7.37h-24.71Z"/>
      <path class="cls-7" d="M151.79,174.63v-58.53h7.44l14.24,33.39v-33.39h8.82v58.53h-7.08l-14.31-34.98v34.98h-9.11Z"/>
      <path class="cls-7" d="M206.93,175.42c-4.29,0-7.65-.84-10.08-2.53-2.43-1.69-4.13-3.99-5.09-6.9-.96-2.91-1.45-6.27-1.45-10.08v-20.88c0-4,.48-7.47,1.45-10.41.96-2.94,2.66-5.2,5.09-6.79,2.43-1.59,5.79-2.38,10.08-2.38,4.05,0,7.21.69,9.5,2.06,2.29,1.37,3.91,3.34,4.88,5.89.96,2.55,1.45,5.52,1.45,8.89v4.91h-10.26v-5.06c0-1.64-.08-3.13-.25-4.48-.17-1.35-.63-2.42-1.37-3.22-.75-.79-2.04-1.19-3.87-1.19s-3.17.42-4.01,1.26c-.84.84-1.39,1.98-1.63,3.4-.24,1.42-.36,3.02-.36,4.81v25.44c0,2.12.17,3.87.51,5.24.34,1.37.95,2.41,1.84,3.11.89.7,2.11,1.05,3.65,1.05,1.78,0,3.05-.42,3.79-1.26.75-.84,1.22-1.96,1.41-3.36.19-1.4.29-2.96.29-4.7v-5.28h10.26v4.7c0,3.47-.46,6.54-1.37,9.21-.92,2.67-2.52,4.77-4.81,6.29-2.29,1.52-5.5,2.28-9.65,2.28Z"/>
      <path class="cls-7" d="M230.34,174.63v-58.53h10.62v24.5h11.92v-24.5h10.7v58.53h-10.7v-26.45h-11.92v26.45h-10.62Z"/>
    </g>
  </g>
  <g id="Character">
    <g>
      <path class="cls-12" d="M217.39,361.34s7.62,36.71,8.21,41.64c.6,4.93,0,11.5,1.94,19.26s7.46,27.17,7.46,27.62.45,3.43.45,3.43l7.17-.9s-.6-35.38-1.49-41.8c-.9-6.42-1.05-10.45-1.05-11.2s-1.2-35.97-1.2-35.97l-21.5-2.09Z"/>
      <path class="cls-12" d="M247.09,363.98s10.98,36.18,13.65,42.99c2.67,6.81,13.83,25.03,18.45,30.14,4.62,5.11,8.51,11.43,8.51,11.43l6.32-.97s-6.53-19.93-11.15-30.38-9-14.83-9-14.83l-2.47-40.31-24.31,1.94Z"/>
      <path class="cls-11" d="M213.58,346.83l-1.62,18.02s4.68,1.26,14.42,2.97c9.73,1.71,15.95,1.71,15.95,1.71l1.71-4.96,1.35,5.14s12.97-.36,19.46-2.07c6.49-1.71,10.81-4.5,10.81-4.5l-4.05-16.94s-42.79,4.32-58.02.63Z"/>
      <g>
        <path class="cls-11" d="M266.14,272.38s12.93,35.41,13.06,47.17-20.9,22.59-20.9,22.59l7.84-69.76Z"/>
        <path class="cls-7" d="M235.49,261.95s-9.15-1.09-12.71.31-15.04,24.03-16.43,29.45c-1.4,5.43-6.2,15.19-6.2,15.19,0,0-2.02.47-2.64,1.86-.62,1.4-1.24,2.48-1.55,3.26-.31.77-12.87,17.67-13.95,19.38-1.09,1.71-1.84,2.59-1.84,2.59l6.96,7.33s4.81-6.51,12.09-12.87c7.29-6.36,14.73-16.9,15.5-17.67.78-.78,2.48-3.72,2.48-3.72,0,0-.93,11.01-3.57,23.25-1.45,6.73-1.91,10.97-2.04,13.44-.09,1.85.96,3.58,2.65,4.34,3.85,1.74,12.86,6.4,29.15,5.46,24.18-1.4,29.76-4.19,30.23-4.65s1.24-.62,1.08-2.64-6.04-20.76-7.28-28.2c-1.24-7.44-2.64-21.39-2.64-21.39l9.92,13.8,17.52-5.27s-9.3-12.25-12.87-20.31-9.15-17.67-11.63-18.76c-2.48-1.09-9.1-1.67-9.1-1.67l-23.14-2.51Z"/>
        <path class="cls-13" d="M229.42,319.79c5.7,4.57,14.97,11.36,23.11,14.39"/>
        <path class="cls-13" d="M224.02,315.25s1.35,1.22,3.59,3.06"/>
        <path class="cls-13" d="M240.13,331.57s11.97,3.7,16.75,4.79"/>
      </g>
      <path class="cls-7" d="M233.87,262.97s1.6,6.69,3.69,11.68c2.1,4.99,3.69,7.89,4.59,7.39s15.88-17.07,16.47-17.57c.6-.5-1.1-1.4-4.19-2.7-3.1-1.3-4.59-1.3-5.79-1.4-1.2-.1-13.08.2-14.78.7-1.7.5,0,1.9,0,1.9Z"/>
      <path class="cls-11" d="M255.07,220.45s7.7,6.78,14.09,16.18,4.3,16.31,0,19.31-18.52,4.44-19.83,4.3c-1.3-.13,0-9.78,0-9.78,0,0,1.04-23.48-2.22-25.18-3.26-1.7-6.65-3-5.74-3.52s10.7-1.96,13.7-1.3Z"/>
      <path class="cls-12" d="M239.66,252.68v19.07c0,6.09,1.9,9.59,2.5,9.29.6-.3,6.19-13.28,6.69-16.18.5-2.9,3.79-9.49,3.79-9.49l-13.28-4.79.3,2.1Z"/>
      <g>
        <path class="cls-12" d="M242.95,222.45s9.31-.46,13.33,2.87,3.33,6.67,4.25,9.54,3.68,4.37,3.33,9.31c-.34,4.94-2.87,10.12-4.25,12.41s-7.93,0-11.73-1.15c-3.79-1.15-8.05-3.45-8.05-3.45,0,0-.69-11.38,0-17.59.69-6.21,1.95-13.1,3.1-11.95Z"/>
        <path class="cls-13" d="M257.87,238.01s2.9,3.07,2.32,4.22c-.57,1.15-4.02,1.49-5.06,1.26-1.03-.23-.69-1.84-.69-1.84"/>
        <path class="cls-13" d="M250.17,232.95s-3.23-.83-5.8,2.15"/>
        <path class="cls-13" d="M255.55,231.46s2.15-2.73,3.98-1.16"/>
        <path class="cls-3" d="M250.48,236.99c.15.81-.16,1.55-.7,1.65-.54.1-1.1-.47-1.26-1.28-.15-.81.16-1.55.7-1.65.54-.1,1.1.47,1.26,1.28Z"/>
        <path class="cls-3" d="M259.4,234.37c.15.81-.16,1.55-.7,1.65-.54.1-1.1-.47-1.26-1.28-.15-.81.16-1.55.7-1.65.54-.1,1.1.47,1.26,1.28Z"/>
        <path class="cls-13" d="M252.82,247.28s4.14,1.99,7.95-.25"/>
        <line class="cls-13" x1="253.48" y1="246.37" x2="251.99" y2="248.28"/>
        <path class="cls-9" d="M254.31,247.78s.99-1.41,2.24-1.66,2.07.5,2.07.5c0,0,1.33-1.82,2.15-1.49.83.33.91,1.33.91,1.33,0,0-1.99,2.32-7.37,1.33Z"/>
        <path class="cls-9" d="M254.31,247.78s1.66,2.82,3.31,2.98c1.66.17,4.06-4.31,4.06-4.31,0,0-2.48,2.4-7.37,1.33Z"/>
        <path class="cls-13" d="M246.33,240.4s2.09-.39,3.26-.26"/>
      </g>
      <path class="cls-11" d="M242.95,222.45s-1.95,12.64-2.07,21.96c-.11,9.31,2.19,15.64,1.84,17.02-.34,1.38-.02,3.38-15.54-3.28s-14.92-12.47-14.81-13.74c.11-1.26,18.39-23.57,23.11-25.52,4.71-1.95,22.88,1.15,21.15,2.18-1.72,1.03-13.68,1.38-13.68,1.38Z"/>
      <path class="cls-11" d="M228.81,261.3s-6.02,9.54-9.54,21.58c-3.52,12.04-2.07,24.18-2.07,24.18,0,0,6.61-21.34,10.93-31.68,4.32-10.34,5.79-13.52,5.79-13.52l-5.11-.57Z"/>
      <path class="cls-11" d="M272.54,314.79s-4.54-6.93-7.27-13.29c-1.58-3.69-2.28-7.96-2.59-10.89-.04-2.31.08-4.69.44-7.06,1.82-11.93,2.27-17.95,2.27-17.95,0,0-4.32-1.36-5.91-1.25,0,0-3.52,14.43-1.59,27.26.86,5.74,2.5,9.61,4.04,12.15,3.38,6.41,10.61,11.02,10.61,11.02Z"/>
      <g>
        <path class="cls-8" d="M242.44,297.98l4.77,21.24s.68,2.16,3.07,2.27,19.54-3.18,19.54-3.18l-5.45-27.26s-19.31,3.18-20.22,3.29c-.91.11-2.27,1.93-1.7,3.63Z"/>
        <path class="cls-6" d="M244.17,294.86s-1,.64-.93,1.71c.07,1.07.78,1.49,1.78,1.57,1,.07,19.85-3.13,19.85-3.13l-.52-3.95-20.19,3.8Z"/>
      </g>
      <path class="cls-12" d="M254.03,309.68s-2.95-2.84-4.66-4.09c-1.7-1.25-4.2,0-5.91,0s-3.18-.8-3.41.23c-.23,1.02.8,2.39,1.25,2.5.45.11,2.04.34,2.04.34,0,0-3.63,1.02-3.75,1.82-.11.8.34,2.27.68,2.73.34.45,1.93.8,1.93.8,0,0,1.36,3.52,2.27,3.86.91.34,7.72.8,8.06.68.34-.11,1.48-8.86,1.48-8.86Z"/>
      <path class="cls-7" d="M285.83,302.87s-3.29.34-9.09,3.18c-5.79,2.84-10.56,3.75-14.77,3.75s-6.7-.68-6.7-.68l-2.73-1.02-.23,11.81s3.86.11,10.9.68c7.04.57,23.97-1.7,29.31-3.52,5.34-1.82,5.11-3.86,3.41-7.5-1.7-3.63-6.59-7.38-6.59-7.38"/>
      <path class="cls-13" d="M285.26,299.69s-3.86,1.82-7.16,4.2"/>
      <path class="cls-13" d="M280.49,299.8s-4.2,2.61-5.57,5"/>
      <path class="cls-13" d="M263.68,295.71s.45-9.54,2.95-17.04"/>
      <path class="cls-13" d="M214.35,284.74c-.06-.87-.1-1.67-.12-2.38"/>
      <path class="cls-13" d="M217.2,307.06s-1.83-11.29-2.62-19.55"/>
      <path class="cls-13" d="M209.08,286.27s3.38,11.37,5.51,14.93"/>
      <path class="cls-13" d="M212.49,307.49c.93,0,1.93-.02,2.98-.07"/>
      <path class="cls-13" d="M203.74,306.71s2.22.53,6.1.72"/>
      <path class="cls-13" d="M211.21,309.02s-8.71,1.95-12.09,1.95"/>
      <g>
        <path class="cls-12" d="M174.57,352.71s1.02,2.75,1.42,1.73c.41-1.02-.92-3.46-.92-3.46,0,0,1.83.51,1.93-.61.1-1.12-.71-2.75-.71-2.75,0,0-2.54,2.44-1.93,5.8l.2-.71Z"/>
        <path class="cls-12" d="M181.7,332.76s-2.65,2.14-4.38,4.78c-1.73,2.65-4.88,11.5-5.09,12.82s.1,2.54.2,3.87c.1,1.32,1.02,3.36,1.83,2.65.81-.71.41-4.78.81-5.9.41-1.12,6-6.82,6-6.82,0,0-1.63,3.36-2.65,5.19-1.02,1.83-.92,3.36-.1,3.56.81.2,3.26-3.77,3.26-3.77,0,0,3.15-2.34,3.76-4.07.61-1.73,1.22-5.8,1.22-5.8l-4.88-6.51Z"/>
      </g>
      <g>
        <path class="cls-6" d="M239.17,450.3s-3.89-4.6-5.01-3.38c-1.13,1.23-1.74,6.75-1.74,6.75,0,0-11.56,7.57-12.89,7.88-1.33.31-3.99.61-3.99,1.94s2.15,2.56,5.11,3.48c2.97.92,8.9-.2,12.68-.82,3.78-.61,7.26-1.43,9.31-1.43s3.99-.41,3.27-4.09c-.72-3.68-1.02-8.59-1.84-10.13-.82-1.53-3.38-1.13-4.91-.2Z"/>
        <path class="cls-6" d="M220.65,466.98c2.97.92,8.9-.2,12.68-.82,3.78-.61,7.26-1.43,9.31-1.43s3.99-.41,3.27-4.09c-.05-.24-.09-.48-.13-.73-.73.11-1.52.26-2.28.45-2.34.59-9.95,4.29-17.37,5.07-7.42.78-10.6-1.93-10.6-1.93,0,1.33,2.15,2.56,5.11,3.48Z"/>
      </g>
      <g>
        <path class="cls-6" d="M292.65,445.63s-4.21-.84-4.84.84c-.63,1.68-.11,2.05-.11,2.05l-1.68-1.95s-.42.84,0,4.1c.42,3.26,1.37,4.42,2.74,6,1.37,1.58.84-.21,2.74,4.63,1.89,4.84,4.63,6.84,7.79,7.36,3.16.53,6.21-1.79,5.47-7.47-.43-3.34-7.36-10.42-8.73-12.1-1.37-1.68-1.37-3.58-2.1-4.31-.74-.74-1.37-.95-1.37-.95l.11,1.79Z"/>
        <path class="cls-6" d="M299.28,468.67c3.16.53,6.21-1.79,5.47-7.47-.07-.5-.29-1.1-.61-1.74.1,2.71-.51,5.88-2.66,7.53-2.54,1.95-6.64-.78-7.81-3.12-1.17-2.34-2.34-7.22-4.88-9.37-2.54-2.15-2.77-3.82-2.77-3.82.42,3.26,1.37,4.42,2.74,6,1.37,1.58.84-.21,2.74,4.63,1.89,4.84,4.63,6.84,7.79,7.36Z"/>
      </g>
    </g>
  </g>
</svg>